<?xml version="1.0" encoding="utf-8"?>
<!-- Generator: Adobe Illustrator 24.1.3, SVG Export Plug-In . SVG Version: 6.00 Build 0)  -->
<svg version="1.1" id="Layer_1" xmlns="http://www.w3.org/2000/svg" xmlns:xlink="http://www.w3.org/1999/xlink" x="0px" y="0px"
	 viewBox="0 0 500 500" style="enable-background:new 0 0 500 500;" xml:space="preserve">
<style type="text/css">
	.st0{fill:#150035;}
	.st1{fill:#FFFFFF;}
	.st2{fill:#39A1FF;}
	.st3{display:none;}
	.st4{display:inline;}
	.st5{display:inline;fill:#39A1FF;}
	.st6{display:inline;fill:#150035;}
	.st7{fill:#FFB000;}
</style>
<g id="XMLID_1928_">
	<g id="XMLID_2365_">
		<g id="XMLID_2345_">
			<g id="XMLID_2415_">
				<g id="XMLID_3909_">
					
						<rect id="XMLID_534_" x="247.7" y="437.4" transform="matrix(0.8748 -0.4844 0.4844 0.8748 -179.9259 179.8755)" class="st0" width="20.8" height="1.4"/>
				</g>
				<g id="XMLID_3907_">
					
						<rect id="XMLID_533_" x="251.5" y="439.4" transform="matrix(0.8749 -0.4843 0.4843 0.8749 -180.396 181.8992)" class="st0" width="20.8" height="1.4"/>
				</g>
				<g id="XMLID_3906_">
					
						<rect id="XMLID_532_" x="254.9" y="441.6" transform="matrix(0.8749 -0.4842 0.4842 0.8749 -180.9881 183.7923)" class="st0" width="20.8" height="1.4"/>
				</g>
				<g id="XMLID_3904_">
					
						<rect id="XMLID_531_" x="258.8" y="443.6" transform="matrix(0.8749 -0.4843 0.4843 0.8749 -181.4776 185.9283)" class="st0" width="20.8" height="1.4"/>
				</g>
				<g id="XMLID_3903_">
					
						<rect id="XMLID_530_" x="261.9" y="445.8" transform="matrix(0.8748 -0.4844 0.4844 0.8748 -182.1806 187.7938)" class="st0" width="20.8" height="1.4"/>
				</g>
				<g id="XMLID_3902_">
					
						<rect id="XMLID_529_" x="265.7" y="447.8" transform="matrix(0.8748 -0.4844 0.4844 0.8748 -182.6815 189.8707)" class="st0" width="20.8" height="1.4"/>
				</g>
				<g id="XMLID_3900_">
					
						<rect id="XMLID_528_" x="269.1" y="449.9" transform="matrix(0.8749 -0.4842 0.4842 0.8749 -183.2423 191.7075)" class="st0" width="20.8" height="1.4"/>
				</g>
				<g id="XMLID_3899_">
					
						<rect id="XMLID_527_" x="273" y="451.9" transform="matrix(0.8749 -0.4843 0.4843 0.8749 -183.7314 193.8444)" class="st0" width="20.8" height="1.4"/>
				</g>
				<g id="XMLID_3897_">
					
						<rect id="XMLID_526_" x="276.4" y="454" transform="matrix(0.8748 -0.4844 0.4844 0.8748 -184.3717 195.825)" class="st0" width="20.8" height="1.4"/>
				</g>
				<g id="XMLID_3896_">
					
						<rect id="XMLID_525_" x="280.3" y="456.5" transform="matrix(0.8749 -0.4842 0.4842 0.8749 -185.1656 197.4648)" class="st0" width="18.7" height="1.4"/>
				</g>
				<g id="XMLID_3894_">
					
						<rect id="XMLID_524_" x="282.5" y="453.6" transform="matrix(0.8748 -0.4844 0.4844 0.8748 -182.2674 203.2279)" class="st0" width="39.4" height="1.4"/>
				</g>
				<g id="XMLID_3893_">
					
						<rect id="XMLID_523_" x="286.3" y="455.6" transform="matrix(0.8749 -0.4842 0.4842 0.8749 -182.6952 205.2496)" class="st0" width="39.4" height="1.4"/>
				</g>
				<g id="XMLID_3892_">
					
						<rect id="XMLID_522_" x="291.8" y="457.7" transform="matrix(0.8749 -0.4843 0.4843 0.8749 -183.2869 207.2178)" class="st0" width="35.2" height="1.4"/>
				</g>
				<g id="XMLID_3890_">
					
						<rect id="XMLID_521_" x="297.7" y="459.6" transform="matrix(0.8737 -0.4864 0.4864 0.8737 -184.2713 210.7032)" class="st0" width="32" height="1.4"/>
				</g>
				<g id="XMLID_3889_">
					
						<rect id="XMLID_520_" x="190.2" y="404.4" transform="matrix(0.8748 -0.4844 0.4844 0.8748 -171.1261 147.8653)" class="st0" width="20.8" height="1.4"/>
				</g>
				<g id="XMLID_3888_">
					
						<rect id="XMLID_519_" x="194" y="406.4" transform="matrix(0.8748 -0.4844 0.4844 0.8748 -171.6269 149.9422)" class="st0" width="20.8" height="1.4"/>
				</g>
				<g id="XMLID_3886_">
					
						<rect id="XMLID_518_" x="197.4" y="408.6" transform="matrix(0.8749 -0.4843 0.4843 0.8749 -172.2053 151.8199)" class="st0" width="20.8" height="1.4"/>
				</g>
				<g id="XMLID_3885_">
					
						<rect id="XMLID_517_" x="201.2" y="410.5" transform="matrix(0.8749 -0.4844 0.4844 0.8749 -172.6936 153.9518)" class="st0" width="20.8" height="1.4"/>
				</g>
				<g id="XMLID_3879_">
					
						<rect id="XMLID_516_" x="204.4" y="412.7" transform="matrix(0.8749 -0.4843 0.4843 0.8749 -173.3489 155.7366)" class="st0" width="20.8" height="1.4"/>
				</g>
				<g id="XMLID_3878_">
					
						<rect id="XMLID_515_" x="208.2" y="414.7" transform="matrix(0.8749 -0.4843 0.4843 0.8749 -173.8498 157.8129)" class="st0" width="20.8" height="1.4"/>
				</g>
				<g id="XMLID_3877_">
					
						<rect id="XMLID_514_" x="211.6" y="416.9" transform="matrix(0.8749 -0.4843 0.4843 0.8749 -174.4734 159.7574)" class="st0" width="20.8" height="1.4"/>
				</g>
				<g id="XMLID_3875_">
					
						<rect id="XMLID_513_" x="215.4" y="418.8" transform="matrix(0.8749 -0.4843 0.4843 0.8749 -174.9315 161.8431)" class="st0" width="20.8" height="1.4"/>
				</g>
				<g id="XMLID_3874_">
					
						<rect id="XMLID_512_" x="218.8" y="421" transform="matrix(0.8748 -0.4844 0.4844 0.8748 -175.5719 163.8148)" class="st0" width="20.8" height="1.4"/>
				</g>
				<g id="XMLID_3867_">
					
						<rect id="XMLID_511_" x="222.7" y="423" transform="matrix(0.8749 -0.4842 0.4842 0.8749 -176.0138 165.844)" class="st0" width="20.8" height="1.4"/>
				</g>
				<g id="XMLID_3863_">
					
						<rect id="XMLID_510_" x="226.1" y="425.1" transform="matrix(0.8748 -0.4844 0.4844 0.8748 -176.6712 167.8449)" class="st0" width="20.8" height="1.4"/>
				</g>
				<g id="XMLID_3827_">
					
						<rect id="XMLID_509_" x="229.9" y="427.1" transform="matrix(0.8749 -0.4843 0.4843 0.8749 -177.1263 169.9237)" class="st0" width="20.8" height="1.4"/>
				</g>
				<g id="XMLID_3825_">
					
						<rect id="XMLID_508_" x="233.1" y="429.3" transform="matrix(0.8749 -0.4843 0.4843 0.8749 -177.7842 171.712)" class="st0" width="20.8" height="1.4"/>
				</g>
				<g id="XMLID_3824_">
					
						<rect id="XMLID_507_" x="236.9" y="431.3" transform="matrix(0.8749 -0.4843 0.4843 0.8749 -178.2961 173.8053)" class="st0" width="20.8" height="1.4"/>
				</g>
				<g id="XMLID_3823_">
					
						<rect id="XMLID_506_" x="240.3" y="433.4" transform="matrix(0.8748 -0.4844 0.4844 0.8748 -178.9255 175.7631)" class="st0" width="20.8" height="1.4"/>
				</g>
				<g id="XMLID_3648_">
					
						<rect id="XMLID_505_" x="244.1" y="435.4" transform="matrix(0.8749 -0.4843 0.4843 0.8749 -179.3801 177.8407)" class="st0" width="20.8" height="1.4"/>
				</g>
				<g id="XMLID_3647_">
					
						<rect id="XMLID_504_" x="247.5" y="437.6" transform="matrix(0.8749 -0.4843 0.4843 0.8749 -179.9894 179.7639)" class="st0" width="20.8" height="1.4"/>
				</g>
				<g id="XMLID_3645_">
					
						<rect id="XMLID_503_" x="151.5" y="379" transform="matrix(0.8749 -0.4842 0.4842 0.8749 -164.1083 124.0197)" class="st0" width="13.1" height="1.4"/>
				</g>
				<g id="XMLID_3644_">
					
						<rect id="XMLID_502_" x="152.4" y="381.2" transform="matrix(0.8748 -0.4844 0.4844 0.8748 -164.7756 126.0312)" class="st0" width="18.2" height="1.4"/>
				</g>
				<g id="XMLID_3642_">
					
						<rect id="XMLID_501_" x="154.4" y="383.4" transform="matrix(0.8749 -0.4843 0.4843 0.8749 -165.3885 127.8786)" class="st0" width="20.8" height="1.4"/>
				</g>
				<g id="XMLID_3641_">
					
						<rect id="XMLID_500_" x="158.3" y="385.4" transform="matrix(0.8749 -0.4842 0.4842 0.8749 -165.843 129.9633)" class="st0" width="20.8" height="1.4"/>
				</g>
				<g id="XMLID_3639_">
					
						<rect id="XMLID_499_" x="161.7" y="387.5" transform="matrix(0.8749 -0.4843 0.4843 0.8749 -166.4694 131.9085)" class="st0" width="20.8" height="1.4"/>
				</g>
				<g id="XMLID_3638_">
					
						<rect id="XMLID_498_" x="165.5" y="389.5" transform="matrix(0.8749 -0.4843 0.4843 0.8749 -166.9738 134.0323)" class="st0" width="20.8" height="1.4"/>
				</g>
				<g id="XMLID_3636_">
					
						<rect id="XMLID_497_" x="169" y="391.6" transform="matrix(0.8749 -0.4842 0.4842 0.8749 -167.552 135.9145)" class="st0" width="20.8" height="1.4"/>
				</g>
				<g id="XMLID_3635_">
					
						<rect id="XMLID_496_" x="172.8" y="393.6" transform="matrix(0.8749 -0.4843 0.4843 0.8749 -168.0552 138.0628)" class="st0" width="20.8" height="1.4"/>
				</g>
				<g id="XMLID_2421_">
					
						<rect id="XMLID_495_" x="176" y="395.8" transform="matrix(0.8748 -0.4844 0.4844 0.8748 -168.7446 139.8975)" class="st0" width="20.8" height="1.4"/>
				</g>
				<g id="XMLID_2419_">
					
						<rect id="XMLID_494_" x="179.7" y="397.8" transform="matrix(0.8749 -0.4843 0.4843 0.8749 -169.2147 141.9302)" class="st0" width="20.8" height="1.4"/>
				</g>
				<g id="XMLID_2418_">
					
						<rect id="XMLID_493_" x="183.1" y="400" transform="matrix(0.8749 -0.4843 0.4843 0.8749 -169.8238 143.854)" class="st0" width="20.8" height="1.4"/>
				</g>
				<g id="XMLID_2416_">
					
						<rect id="XMLID_492_" x="187" y="401.9" transform="matrix(0.8749 -0.4842 0.4842 0.8749 -170.2757 145.9315)" class="st0" width="20.8" height="1.4"/>
				</g>
			</g>
			<g id="XMLID_2346_">
				<g id="XMLID_2414_">
					
						<rect id="XMLID_491_" x="342.1" y="458.3" transform="matrix(0.8748 -0.4844 0.4844 0.8748 -178.2199 228.215)" class="st0" width="20.8" height="1.4"/>
				</g>
				<g id="XMLID_2412_">
					
						<rect id="XMLID_490_" x="345.9" y="460.3" transform="matrix(0.8749 -0.4843 0.4843 0.8749 -178.7027 230.249)" class="st0" width="20.8" height="1.4"/>
				</g>
				<g id="XMLID_2407_">
					
						<rect id="XMLID_489_" x="349.3" y="462.4" transform="matrix(0.8749 -0.4842 0.4842 0.8749 -179.281 232.0999)" class="st0" width="20.8" height="1.4"/>
				</g>
				<g id="XMLID_2405_">
					
						<rect id="XMLID_488_" x="353.2" y="464.4" transform="matrix(0.8749 -0.4843 0.4843 0.8749 -179.7718 234.2494)" class="st0" width="20.8" height="1.4"/>
				</g>
				<g id="XMLID_2404_">
					
						<rect id="XMLID_487_" x="356.3" y="466.6" transform="matrix(0.8749 -0.4842 0.4842 0.8749 -180.4282 236.0236)" class="st0" width="20.8" height="1.4"/>
				</g>
				<g id="XMLID_2400_">
					
						<rect id="XMLID_486_" x="360.1" y="468.6" transform="matrix(0.8749 -0.4842 0.4842 0.8749 -180.9291 238.0996)" class="st0" width="20.8" height="1.4"/>
				</g>
				<g id="XMLID_2398_">
					
						<rect id="XMLID_485_" x="363.5" y="470.8" transform="matrix(0.8749 -0.4844 0.4844 0.8749 -181.5695 240.097)" class="st0" width="20.8" height="1.4"/>
				</g>
				<g id="XMLID_2397_">
					
						<rect id="XMLID_484_" x="367.4" y="472.7" transform="matrix(0.8748 -0.4844 0.4844 0.8748 -182.0535 242.2329)" class="st0" width="20.8" height="1.4"/>
				</g>
				<g id="XMLID_2395_">
					
						<rect id="XMLID_483_" x="370.8" y="474.9" transform="matrix(0.8748 -0.4844 0.4844 0.8748 -182.6626 244.1573)" class="st0" width="20.8" height="1.4"/>
				</g>
				<g id="XMLID_2394_">
					
						<rect id="XMLID_482_" x="374.6" y="476.9" transform="matrix(0.8749 -0.4842 0.4842 0.8749 -183.1099 246.1567)" class="st0" width="20.8" height="1.4"/>
				</g>
				<g id="XMLID_2393_">
					
						<rect id="XMLID_481_" x="378" y="479" transform="matrix(0.8749 -0.4843 0.4843 0.8749 -183.7346 248.1176)" class="st0" width="20.8" height="1.4"/>
				</g>
				<g id="XMLID_2391_">
					
						<rect id="XMLID_480_" x="381.9" y="481" transform="matrix(0.8749 -0.4843 0.4843 0.8749 -184.2154 250.2473)" class="st0" width="20.8" height="1.4"/>
				</g>
				<g id="XMLID_2390_">
					
						<rect id="XMLID_479_" x="387.4" y="483" transform="matrix(0.8749 -0.4843 0.4843 0.8749 -184.7742 252.1456)" class="st0" width="16.6" height="1.4"/>
				</g>
				<g id="XMLID_2388_">
					
						<rect id="XMLID_478_" x="393.4" y="485.7" transform="matrix(0.8692 -0.4944 0.4944 0.8692 -188.3725 260.6582)" class="st0" width="10.2" height="1.4"/>
				</g>
				<g id="XMLID_2387_">
					
						<rect id="XMLID_477_" x="284.6" y="425.3" transform="matrix(0.8748 -0.4844 0.4844 0.8748 -169.4167 196.1984)" class="st0" width="20.8" height="1.4"/>
				</g>
				<g id="XMLID_2386_">
					
						<rect id="XMLID_476_" x="288.3" y="427.3" transform="matrix(0.8749 -0.4843 0.4843 0.8749 -169.8902 198.2179)" class="st0" width="20.8" height="1.4"/>
				</g>
				<g id="XMLID_2384_">
					
						<rect id="XMLID_475_" x="291.8" y="429.4" transform="matrix(0.8748 -0.4844 0.4844 0.8748 -170.5272 200.1979)" class="st0" width="20.8" height="1.4"/>
				</g>
				<g id="XMLID_2383_">
					
						<rect id="XMLID_474_" x="295.6" y="431.4" transform="matrix(0.8749 -0.4842 0.4842 0.8749 -170.9528 202.2099)" class="st0" width="20.8" height="1.4"/>
				</g>
				<g id="XMLID_2381_">
					
						<rect id="XMLID_473_" x="298.8" y="433.6" transform="matrix(0.8749 -0.4843 0.4843 0.8749 -171.6429 204.0585)" class="st0" width="20.8" height="1.4"/>
				</g>
				<g id="XMLID_2380_">
					
						<rect id="XMLID_472_" x="302.5" y="435.6" transform="matrix(0.8749 -0.4843 0.4843 0.8749 -172.144 206.134)" class="st0" width="20.8" height="1.4"/>
				</g>
				<g id="XMLID_2379_">
					
						<rect id="XMLID_471_" x="306" y="437.7" transform="matrix(0.8749 -0.4843 0.4843 0.8749 -172.7533 208.057)" class="st0" width="20.8" height="1.4"/>
				</g>
				<g id="XMLID_2377_">
					
						<rect id="XMLID_470_" x="318.5" y="440.5" transform="matrix(0.8777 -0.4792 0.4792 0.8777 -171.5295 210.2036)" class="st0" width="15.2" height="1.4"/>
				</g>
				<g id="XMLID_2376_">
					<polygon id="XMLID_469_" class="st0" points="323.6,447.4 322.9,446.2 336.2,438.9 336.9,440.1 					"/>
				</g>
				<g id="XMLID_2375_">
					
						<rect id="XMLID_468_" x="323.8" y="445" transform="matrix(0.8794 -0.4762 0.4762 0.8794 -172.1398 212.0506)" class="st0" width="17.2" height="1.4"/>
				</g>
				<g id="XMLID_2373_">
					<polygon id="XMLID_467_" class="st0" points="328,453.1 327.4,451.9 343.5,443 344.1,444.2 					"/>
				</g>
				<g id="XMLID_2372_">
					
						<rect id="XMLID_466_" x="327.5" y="450.2" transform="matrix(0.8748 -0.4844 0.4844 0.8748 -176.1062 220.095)" class="st0" width="20.8" height="1.4"/>
				</g>
				<g id="XMLID_2370_">
					
						<rect id="XMLID_465_" x="331.2" y="452.2" transform="matrix(0.8749 -0.4843 0.4843 0.8749 -176.5795 222.1085)" class="st0" width="20.8" height="1.4"/>
				</g>
				<g id="XMLID_2369_">
					
						<rect id="XMLID_464_" x="334.7" y="454.3" transform="matrix(0.8749 -0.4843 0.4843 0.8749 -177.1886 224.0324)" class="st0" width="20.8" height="1.4"/>
				</g>
				<g id="XMLID_2367_">
					
						<rect id="XMLID_463_" x="338.5" y="456.3" transform="matrix(0.8749 -0.4842 0.4842 0.8749 -177.645 226.1033)" class="st0" width="20.8" height="1.4"/>
				</g>
				<g id="XMLID_2366_">
					
						<rect id="XMLID_462_" x="341.9" y="458.4" transform="matrix(0.8748 -0.4844 0.4844 0.8748 -178.2976 228.1253)" class="st0" width="20.8" height="1.4"/>
				</g>
				<g id="XMLID_2363_">
					
						<rect id="XMLID_461_" x="245.9" y="399.9" transform="matrix(0.8749 -0.4843 0.4843 0.8749 -162.4317 172.385)" class="st0" width="13.1" height="1.4"/>
				</g>
				<g id="XMLID_2362_">
					
						<rect id="XMLID_460_" x="246.8" y="402.1" transform="matrix(0.8748 -0.4844 0.4844 0.8748 -163.0663 174.3639)" class="st0" width="18.2" height="1.4"/>
				</g>
				<g id="XMLID_2360_">
					
						<rect id="XMLID_459_" x="248.8" y="404.2" transform="matrix(0.8749 -0.4842 0.4842 0.8749 -163.6702 176.1766)" class="st0" width="20.8" height="1.4"/>
				</g>
				<g id="XMLID_2359_">
					
						<rect id="XMLID_458_" x="252.7" y="406.2" transform="matrix(0.8748 -0.4844 0.4844 0.8748 -164.1818 178.3581)" class="st0" width="20.8" height="1.4"/>
				</g>
				<g id="XMLID_2357_">
					
						<rect id="XMLID_457_" x="256.1" y="408.4" transform="matrix(0.8749 -0.4843 0.4843 0.8749 -164.7636 180.2296)" class="st0" width="20.8" height="1.4"/>
				</g>
				<g id="XMLID_2356_">
					
						<rect id="XMLID_456_" x="259.9" y="410.4" transform="matrix(0.8749 -0.4842 0.4842 0.8749 -165.239 182.3058)" class="st0" width="20.8" height="1.4"/>
				</g>
				<g id="XMLID_2355_">
					
						<rect id="XMLID_455_" x="263.3" y="412.5" transform="matrix(0.8749 -0.4843 0.4843 0.8749 -165.8633 184.2588)" class="st0" width="20.8" height="1.4"/>
				</g>
				<g id="XMLID_2353_">
					
						<rect id="XMLID_454_" x="267.2" y="414.5" transform="matrix(0.8749 -0.4842 0.4842 0.8749 -166.3199 186.3352)" class="st0" width="20.8" height="1.4"/>
				</g>
				<g id="XMLID_2352_">
					
						<rect id="XMLID_453_" x="270.4" y="416.7" transform="matrix(0.8749 -0.4843 0.4843 0.8749 -167.0078 188.1757)" class="st0" width="20.8" height="1.4"/>
				</g>
				<g id="XMLID_2350_">
					
						<rect id="XMLID_452_" x="274.1" y="418.7" transform="matrix(0.8749 -0.4843 0.4843 0.8749 -167.5089 190.2513)" class="st0" width="20.8" height="1.4"/>
				</g>
				<g id="XMLID_2349_">
					
						<rect id="XMLID_451_" x="277.5" y="420.8" transform="matrix(0.8748 -0.4844 0.4844 0.8748 -168.1457 192.23)" class="st0" width="20.8" height="1.4"/>
				</g>
				<g id="XMLID_2348_">
					
						<rect id="XMLID_449_" x="281.4" y="422.8" transform="matrix(0.8749 -0.4843 0.4843 0.8749 -168.5898 194.2812)" class="st0" width="20.8" height="1.4"/>
				</g>
			</g>
		</g>
		<g id="XMLID_2279_">
			<g id="XMLID_2343_">
				
					<rect id="XMLID_448_" x="193.9" y="369" transform="matrix(0.8749 -0.4843 0.4843 0.8749 -153.4874 145.2035)" class="st0" width="20.8" height="1.4"/>
			</g>
			<g id="XMLID_2342_">
				
					<rect id="XMLID_447_" x="197.7" y="371" transform="matrix(0.8749 -0.4844 0.4844 0.8749 -154.013 147.3186)" class="st0" width="20.8" height="1.4"/>
			</g>
			<g id="XMLID_2341_">
				
					<rect id="XMLID_446_" x="201.1" y="373.2" transform="matrix(0.8749 -0.4843 0.4843 0.8749 -154.5976 149.2028)" class="st0" width="20.8" height="1.4"/>
			</g>
			<g id="XMLID_2339_">
				
					<rect id="XMLID_445_" x="205" y="375.1" transform="matrix(0.8748 -0.4844 0.4844 0.8748 -155.0969 151.3537)" class="st0" width="20.8" height="1.4"/>
			</g>
			<g id="XMLID_2338_">
				
					<rect id="XMLID_444_" x="208.1" y="377.3" transform="matrix(0.8749 -0.4843 0.4843 0.8749 -155.7542 153.14)" class="st0" width="20.8" height="1.4"/>
			</g>
			<g id="XMLID_2337_">
				
					<rect id="XMLID_443_" x="211.9" y="379.3" transform="matrix(0.8749 -0.4843 0.4843 0.8749 -156.2458 155.1997)" class="st0" width="20.8" height="1.4"/>
			</g>
			<g id="XMLID_2335_">
				
					<rect id="XMLID_442_" x="215.3" y="381.5" transform="matrix(0.8749 -0.4842 0.4842 0.8749 -156.8373 157.0936)" class="st0" width="20.8" height="1.4"/>
			</g>
			<g id="XMLID_2334_">
				
					<rect id="XMLID_441_" x="219.2" y="383.5" transform="matrix(0.8749 -0.4843 0.4843 0.8749 -157.3241 159.2252)" class="st0" width="20.8" height="1.4"/>
			</g>
			<g id="XMLID_2328_">
				
					<rect id="XMLID_440_" x="222.6" y="385.6" transform="matrix(0.8749 -0.4843 0.4843 0.8749 -157.9332 161.1491)" class="st0" width="20.8" height="1.4"/>
			</g>
			<g id="XMLID_2332_">
				
					<rect id="XMLID_439_" x="226.4" y="387.6" transform="matrix(0.8749 -0.4842 0.4842 0.8749 -158.4088 163.228)" class="st0" width="20.8" height="1.4"/>
			</g>
			<g id="XMLID_2331_">
				
					<rect id="XMLID_438_" x="229.8" y="389.7" transform="matrix(0.8749 -0.4844 0.4844 0.8749 -159.0576 165.2208)" class="st0" width="20.8" height="1.4"/>
			</g>
			<g id="XMLID_2330_">
				
					<rect id="XMLID_437_" x="233.7" y="391.7" transform="matrix(0.8749 -0.4843 0.4843 0.8749 -159.5171 167.3051)" class="st0" width="20.8" height="1.4"/>
			</g>
			<g id="XMLID_2327_">
				
					<rect id="XMLID_436_" x="239.2" y="393.8" transform="matrix(0.8749 -0.4843 0.4843 0.8749 -160.0848 169.2273)" class="st0" width="16.6" height="1.4"/>
			</g>
			<g id="XMLID_2325_">
				
					<rect id="XMLID_435_" x="245.2" y="396.4" transform="matrix(0.8692 -0.4944 0.4944 0.8692 -163.6064 175.7026)" class="st0" width="10.2" height="1.4"/>
			</g>
			<g id="XMLID_2324_">
				
					<rect id="XMLID_434_" x="136.4" y="336" transform="matrix(0.8748 -0.4844 0.4844 0.8748 -144.7165 113.2394)" class="st0" width="20.8" height="1.4"/>
			</g>
			<g id="XMLID_2322_">
				
					<rect id="XMLID_433_" x="140.2" y="338" transform="matrix(0.8748 -0.4844 0.4844 0.8748 -145.2155 115.3133)" class="st0" width="20.8" height="1.4"/>
			</g>
			<g id="XMLID_2321_">
				
					<rect id="XMLID_432_" x="143.6" y="340.1" transform="matrix(0.8749 -0.4843 0.4843 0.8749 -145.7956 117.1975)" class="st0" width="20.8" height="1.4"/>
			</g>
			<g id="XMLID_2320_">
				
					<rect id="XMLID_431_" x="147.4" y="342.1" transform="matrix(0.8749 -0.4842 0.4842 0.8749 -146.2548 119.2864)" class="st0" width="20.8" height="1.4"/>
			</g>
			<g id="XMLID_2318_">
				
					<rect id="XMLID_430_" x="150.6" y="344.3" transform="matrix(0.8749 -0.4843 0.4843 0.8749 -146.9416 121.1174)" class="st0" width="20.8" height="1.4"/>
			</g>
			<g id="XMLID_2317_">
				
					<rect id="XMLID_429_" x="154.3" y="346.3" transform="matrix(0.8748 -0.4844 0.4844 0.8748 -147.4694 123.2314)" class="st0" width="20.8" height="1.4"/>
			</g>
			<g id="XMLID_2315_">
				
					<rect id="XMLID_428_" x="157.8" y="348.5" transform="matrix(0.8748 -0.4844 0.4844 0.8748 -148.0811 125.1582)" class="st0" width="20.8" height="1.4"/>
			</g>
			<g id="XMLID_2314_">
				
					<rect id="XMLID_427_" x="161.6" y="350.4" transform="matrix(0.8749 -0.4843 0.4843 0.8749 -148.5239 127.2234)" class="st0" width="20.8" height="1.4"/>
			</g>
			<g id="XMLID_2313_">
				
					<rect id="XMLID_426_" x="165" y="352.6" transform="matrix(0.8749 -0.4843 0.4843 0.8749 -149.1452 129.1642)" class="st0" width="20.8" height="1.4"/>
			</g>
			<g id="XMLID_2311_">
				
					<rect id="XMLID_425_" x="168.9" y="354.6" transform="matrix(0.8749 -0.4842 0.4842 0.8749 -149.6083 131.23)" class="st0" width="20.8" height="1.4"/>
			</g>
			<g id="XMLID_2310_">
				
					<rect id="XMLID_424_" x="172.3" y="356.7" transform="matrix(0.8749 -0.4844 0.4844 0.8749 -150.2471 133.1965)" class="st0" width="20.8" height="1.4"/>
			</g>
			<g id="XMLID_2308_">
				
					<rect id="XMLID_423_" x="176.1" y="358.7" transform="matrix(0.8749 -0.4842 0.4842 0.8749 -150.6897 135.2595)" class="st0" width="20.8" height="1.4"/>
			</g>
			<g id="XMLID_2307_">
				
					<rect id="XMLID_422_" x="179.3" y="360.9" transform="matrix(0.8748 -0.4844 0.4844 0.8748 -151.404 137.1335)" class="st0" width="20.8" height="1.4"/>
			</g>
			<g id="XMLID_2305_">
				
					<rect id="XMLID_421_" x="183.1" y="362.9" transform="matrix(0.8748 -0.4844 0.4844 0.8748 -151.905 139.2099)" class="st0" width="20.8" height="1.4"/>
			</g>
			<g id="XMLID_2304_">
				
					<rect id="XMLID_420_" x="186.5" y="365" transform="matrix(0.8749 -0.4843 0.4843 0.8749 -152.4873 141.0913)" class="st0" width="20.8" height="1.4"/>
			</g>
			<g id="XMLID_2303_">
				
					<rect id="XMLID_419_" x="190.3" y="367" transform="matrix(0.8749 -0.4843 0.4843 0.8749 -152.971 143.2172)" class="st0" width="20.8" height="1.4"/>
			</g>
			<g id="XMLID_2301_">
				
					<rect id="XMLID_418_" x="193.7" y="369.1" transform="matrix(0.8749 -0.4842 0.4842 0.8749 -153.5532 145.0973)" class="st0" width="20.8" height="1.4"/>
			</g>
			<g id="XMLID_2300_">
				
					<rect id="XMLID_417_" x="97.7" y="310.6" transform="matrix(0.8749 -0.4843 0.4843 0.8749 -137.7197 89.4243)" class="st0" width="13.1" height="1.4"/>
			</g>
			<g id="XMLID_2298_">
				
					<rect id="XMLID_416_" x="98.6" y="312.8" transform="matrix(0.8748 -0.4844 0.4844 0.8748 -138.3642 91.4024)" class="st0" width="18.2" height="1.4"/>
			</g>
			<g id="XMLID_2297_">
				
					<rect id="XMLID_415_" x="100.6" y="315" transform="matrix(0.8749 -0.4843 0.4843 0.8749 -138.9932 93.2729)" class="st0" width="20.8" height="1.4"/>
			</g>
			<g id="XMLID_2296_">
				
					<rect id="XMLID_414_" x="104.5" y="316.9" transform="matrix(0.8748 -0.4844 0.4844 0.8748 -139.4798 95.3962)" class="st0" width="20.8" height="1.4"/>
			</g>
			<g id="XMLID_2293_">
				
					<rect id="XMLID_413_" x="107.9" y="319.1" transform="matrix(0.8749 -0.4843 0.4843 0.8749 -140.0621 97.2893)" class="st0" width="20.8" height="1.4"/>
			</g>
			<g id="XMLID_2292_">
				
					<rect id="XMLID_412_" x="111.7" y="321.1" transform="matrix(0.8749 -0.4844 0.4844 0.8749 -140.5669 99.4114)" class="st0" width="20.8" height="1.4"/>
			</g>
			<g id="XMLID_2290_">
				
					<rect id="XMLID_411_" x="115.1" y="323.2" transform="matrix(0.8749 -0.4843 0.4843 0.8749 -141.162 101.3177)" class="st0" width="20.8" height="1.4"/>
			</g>
			<g id="XMLID_2288_">
				
					<rect id="XMLID_410_" x="119" y="325.2" transform="matrix(0.8749 -0.4843 0.4843 0.8749 -141.6456 103.4392)" class="st0" width="20.8" height="1.4"/>
			</g>
			<g id="XMLID_2286_">
				
					<rect id="XMLID_409_" x="122.2" y="327.4" transform="matrix(0.8749 -0.4844 0.4844 0.8749 -142.3311 105.265)" class="st0" width="20.8" height="1.4"/>
			</g>
			<g id="XMLID_2285_">
				
					<rect id="XMLID_408_" x="125.9" y="329.4" transform="matrix(0.8748 -0.4844 0.4844 0.8748 -142.8343 107.3447)" class="st0" width="20.8" height="1.4"/>
			</g>
			<g id="XMLID_2282_">
				
					<rect id="XMLID_407_" x="129.3" y="331.5" transform="matrix(0.8748 -0.4844 0.4844 0.8748 -143.4436 109.2681)" class="st0" width="20.8" height="1.4"/>
			</g>
			<g id="XMLID_2280_">
				
					<rect id="XMLID_406_" x="133.2" y="333.5" transform="matrix(0.8749 -0.4842 0.4842 0.8749 -143.8734 111.3217)" class="st0" width="20.8" height="1.4"/>
			</g>
		</g>
	</g>
	<g id="XMLID_2166_">
		<g id="XMLID_2171_">
			<g id="XMLID_2274_">
				<g id="XMLID_2276_">
					<rect id="XMLID_879_" x="73.4" y="224.9" class="st0" width="2.3" height="25"/>
				</g>
			</g>
			<g id="XMLID_2241_">
				<g id="XMLID_2264_">
					<g id="XMLID_2273_">
						<path id="XMLID_878_" class="st0" d="M145.9,352l12.8,0.3c0.2,0,0.4-0.1,0.6-0.2l48.8-28.2c3-1.7,7.5-1.9,10.1-0.4l110.8,64
							c0.1,0,0.1,0.1,0.2,0.1l36.8,12.4c0.5,0.2,0.8,0.6,0.8,1.2l0,9.2c0.3,1.3-0.5,2.8-2.4,3.9l-61,35.2c-3,1.7-7.5,1.9-10.1,0.4
							L146.3,365c-1.2-0.7-1.7-1.6-1.7-2.6l0-9.2C144.6,352.5,145.2,352,145.9,352z"/>
					</g>
					<g id="XMLID_2267_">
						<path id="XMLID_1854_" class="st0" d="M292.7,450.8L145.8,366c-1.5-0.9-2.3-2.1-2.3-3.6v-9.2c0-0.6,0.3-1.3,0.7-1.7
							c0.5-0.5,1-0.8,1.7-0.7l12.8,0.3l48.8-28.2c3.4-1.9,8.3-2.1,11.3-0.4l110.8,64l36.8,12.4c1,0.3,1.6,1.2,1.6,2.3l0,9.1
							c0.4,1.8-0.7,3.7-3,5l-61,35.2c-1.8,1.1-4.1,1.6-6.3,1.6C295.8,452,294,451.6,292.7,450.8z M208.7,324.9l-48.8,28.2
							c-0.4,0.2-0.7,0.4-1.3,0.3l-12.8-0.3l0-1.2l-0.1,10.4c0,0.7,0.6,1.2,1.1,1.5l146.9,84.8c2.2,1.3,6.3,1.1,9-0.4l61-35.2
							c1.3-0.8,2-1.8,1.9-2.6l-0.1-9.6l-36.8-12.4c-0.1-0.1-0.3-0.1-0.4-0.2l-110.8-64c-1-0.6-2.4-0.9-3.8-0.9
							C212.1,323.6,210.1,324.1,208.7,324.9z"/>
					</g>
				</g>
				<g id="XMLID_2255_">
					<g id="XMLID_2262_">
						<path id="XMLID_877_" class="st1" d="M146.3,354.8l146.9,84.8c2.6,1.5,7.1,1.3,10.1-0.4l61-35.2c3-1.7,3.3-4.3,0.7-5.8
							l-146.9-84.8c-2.6-1.5-7.1-1.3-10.1,0.4l-61,35.2C144.1,350.7,143.7,353.3,146.3,354.8z"/>
					</g>
					<g id="XMLID_2257_">
						<path id="XMLID_1847_" class="st0" d="M292.7,440.7l-146.9-84.8c-1.5-0.9-2.3-2.1-2.3-3.5c0-1.6,1.1-3.2,3.1-4.3l61-35.2
							c3.4-1.9,8.3-2.1,11.3-0.4l146.9,84.8c1.5,0.9,2.3,2.1,2.3,3.5c0,1.6-1.1,3.2-3.1,4.3l-61,35.2c-1.8,1.1-4.1,1.6-6.3,1.6
							C295.8,441.9,294,441.5,292.7,440.7z M208.7,314.8l-61,35.2c-1.2,0.7-1.9,1.5-1.9,2.3c0,0.7,0.6,1.2,1.2,1.5l146.9,84.8
							c2.2,1.3,6.3,1.1,9-0.4l61-35.2c1.2-0.7,1.9-1.5,1.9-2.3c0-0.7-0.6-1.2-1.2-1.5l-146.9-84.8c-1-0.6-2.4-0.9-3.8-0.9
							C212.1,313.5,210.1,313.9,208.7,314.8z"/>
					</g>
				</g>
				<g id="XMLID_2251_">
					<g id="XMLID_2252_">
						<rect id="XMLID_876_" x="296.8" y="441.4" class="st2" width="1.8" height="8.7"/>
					</g>
				</g>
				<g id="XMLID_2247_">
					<g id="XMLID_2249_">
						<rect id="XMLID_875_" x="359.3" y="406.7" class="st2" width="1.8" height="8.7"/>
					</g>
				</g>
				<g id="XMLID_2244_">
					<g id="XMLID_2245_">
						<rect id="XMLID_874_" x="150.3" y="357.9" class="st2" width="1.8" height="8.7"/>
					</g>
				</g>
			</g>
			<g id="XMLID_2233_">
				<g id="XMLID_2240_">
					<path id="XMLID_873_" class="st1" d="M84.1,18.9c-0.1-0.2-0.1-0.4,0.1-0.5l10.9-6c0.6-0.5,1.4-0.5,2.3,0l329.3,190.1
						c1.8,1,3.2,3.8,3.2,6.2v252c0,1.2-0.4,2.1-0.9,2.5l-11.5,6.4L406,455.8l4.5-2L97.3,273c-1.8-1-3.2-3.8-3.2-6.2V32.5L84.1,18.9z
						"/>
				</g>
				<g id="XMLID_2234_">
					<path id="XMLID_1830_" class="st0" d="M404.1,455.3l3.8-1.7L96.8,274c-2.1-1.2-3.8-4.4-3.8-7.2V32.9l-9.8-13.3
						c-0.3-0.3-0.4-0.8-0.3-1.2c0.1-0.4,0.4-0.8,0.7-1l10.7-6c1-0.8,2.3-0.8,3.6,0l329.3,190.1c2.1,1.2,3.8,4.4,3.8,7.2v252
						c0,1.5-0.5,2.7-1.5,3.5l-12.3,6.8L404.1,455.3z M95.6,13.4L85.6,19l9.7,13.2v234.7c0,2,1.2,4.3,2.6,5.1l315.2,182l-5.2,2.3
						l9.8,11.8l10.5-5.8c0.2-0.2,0.5-0.7,0.5-1.6v-252c0-2-1.2-4.3-2.6-5.1L96.8,13.4c-0.2-0.1-0.4-0.2-0.6-0.2
						C96,13.2,95.8,13.3,95.6,13.4z"/>
				</g>
			</g>
			<g id="XMLID_2198_">
				<g id="XMLID_2223_">
					<g id="XMLID_2230_">
						<path id="XMLID_872_" class="st0" d="M85.8,279.4l329.3,190.1c1.8,1,3.2-0.1,3.2-2.4v-252c0-2.4-1.4-5.1-3.2-6.2L85.8,18.8
							c-1.8-1-3.2,0.1-3.2,2.4v252C82.6,275.6,84.1,278.4,85.8,279.4z"/>
					</g>
					<g id="XMLID_2224_">
						<path id="XMLID_1823_" class="st0" d="M414.6,470.5L85.2,280.4c-2.1-1.2-3.8-4.4-3.8-7.2v-252c0-1.7,0.6-3,1.7-3.6
							c1-0.6,2.1-0.5,3.3,0.2l329.3,190.1c2.1,1.2,3.8,4.4,3.8,7.2v252c0,1.7-0.6,3-1.7,3.6c-0.4,0.3-0.9,0.4-1.4,0.4
							C415.9,471.1,415.2,470.9,414.6,470.5z M84.3,19.6c-0.2,0.1-0.5,0.6-0.5,1.6v252c0,2,1.2,4.3,2.6,5.1l329.3,190.1
							c0.2,0.1,0.7,0.3,0.9,0.2c0.2-0.1,0.5-0.6,0.5-1.6v-252c0-2-1.2-4.3-2.6-5.1L85.2,19.8c-0.1-0.1-0.4-0.2-0.7-0.2
							C84.5,19.6,84.4,19.6,84.3,19.6z"/>
					</g>
				</g>
				<g id="XMLID_2213_">
					<g id="XMLID_2222_">
						<path id="XMLID_871_" class="st2" d="M86.3,274.7l328.4,189.6c0.5,0.3,0.9,0,0.9-0.7V213.9c0-0.7-0.4-1.5-0.9-1.8L86.3,22.5
							c-0.5-0.3-0.9,0-0.9,0.7v249.7C85.4,273.6,85.8,274.4,86.3,274.7z"/>
					</g>
					<g id="XMLID_2216_">
						<path id="XMLID_1816_" class="st0" d="M414.1,465.3L85.7,275.7l0,0c-0.9-0.5-1.5-1.7-1.5-2.8V23.2c0-0.8,0.3-1.4,0.9-1.8
							c0.5-0.3,1.2-0.3,1.8,0.1L415.3,211c0.9,0.5,1.5,1.7,1.5,2.8v249.7c0,0.8-0.3,1.4-0.9,1.8c-0.3,0.1-0.5,0.2-0.8,0.2
							C414.8,465.6,414.4,465.5,414.1,465.3z M86.5,272.9c0,0.3,0.2,0.7,0.4,0.8l327.6,189.1V213.9c0-0.3-0.2-0.7-0.4-0.8L86.5,23.9
							V272.9z"/>
					</g>
				</g>
				<g id="XMLID_2204_">
					<g id="XMLID_2212_">
						<path id="XMLID_870_" class="st0" d="M82.6,273.5v-14.4L418.4,453v14.4c0,2.2-1.5,3.1-3.5,2L86.1,279.5
							C84.2,278.4,82.6,275.7,82.6,273.5z"/>
					</g>
					<g id="XMLID_2206_">
						<path id="XMLID_1809_" class="st0" d="M414.4,470.4L85.5,280.5c-2.3-1.3-4-4.4-4-7v-16.4L419,452l0.6,0.3v15.1
							c0,1.5-0.6,2.7-1.6,3.3c-0.4,0.3-0.9,0.4-1.5,0.4C415.8,471,415.1,470.8,414.4,470.4z M83.8,261.1v12.4c0,1.8,1.3,4.1,2.9,5
							l328.9,189.9c0.5,0.3,1,0.4,1.3,0.2c0.3-0.2,0.4-0.6,0.4-1.2v-13.7L83.8,261.1z"/>
					</g>
				</g>
				<g id="XMLID_2200_">
					<g id="XMLID_2201_">
						
							<rect id="XMLID_869_" x="249.6" y="340.7" transform="matrix(0.5004 -0.8658 0.8658 0.5004 -191.0784 399.3499)" class="st2" width="1.8" height="49.1"/>
					</g>
				</g>
			</g>
			<g id="XMLID_2194_">
				<g id="XMLID_2195_">
					
						<rect id="XMLID_868_" x="417.7" y="207.2" transform="matrix(0.8574 -0.5147 0.5147 0.8574 -46.7437 248.1054)" class="st0" width="13.2" height="2.3"/>
				</g>
			</g>
			<g id="XMLID_2191_">
				<g id="XMLID_2193_">
					
						<rect id="XMLID_867_" x="103.5" y="25" transform="matrix(0.8574 -0.5147 0.5147 0.8574 2.2301 60.4166)" class="st0" width="13.2" height="2.3"/>
				</g>
			</g>
			<g id="XMLID_2189_">
				<g id="XMLID_2190_">
					
						<rect id="XMLID_866_" x="417.7" y="446" transform="matrix(0.8574 -0.5147 0.5147 0.8574 -169.6386 282.129)" class="st0" width="13.2" height="2.3"/>
				</g>
			</g>
			<g id="XMLID_2186_">
				<g id="XMLID_2187_">
					<polygon id="XMLID_865_" class="st2" points="339.5,428.1 340.4,426.6 333.2,422.4 332.3,424 					"/>
				</g>
			</g>
			<g id="XMLID_2183_">
				<g id="XMLID_2185_">
					<path id="XMLID_864_" class="st0" d="M298.3,435.3c1.2,0,2.4-0.3,3.5-1l12.8-7.9l-1.2-2l-12.8,7.9c-1.3,0.8-3,0.9-4.4,0.1
						l-126.5-72.2l-1.2,2L295,434.4C296,435,297.2,435.3,298.3,435.3z"/>
				</g>
			</g>
			<g id="XMLID_2181_">
				<g id="XMLID_2182_">
					<path id="XMLID_863_" class="st0" d="M164.8,360.2l1.1-2l-9.4-5.2c-0.4-0.2-0.4-0.6-0.4-0.7c0-0.1,0-0.5,0.4-0.7l13.1-7.7
						l-1.2-2l-13.1,7.6c-1,0.6-1.6,1.6-1.6,2.7c0,1.1,0.6,2.2,1.6,2.7L164.8,360.2z"/>
				</g>
			</g>
			<g id="XMLID_2178_">
				<g id="XMLID_2179_">
					
						<rect id="XMLID_862_" x="418.3" y="437.3" transform="matrix(0.8574 -0.5147 0.5147 0.8574 -165.094 281.2523)" class="st0" width="13.2" height="2.3"/>
				</g>
			</g>
			<g id="XMLID_2175_">
				<g id="XMLID_2177_">
					
						<rect id="XMLID_861_" x="110.8" y="29.1" transform="matrix(0.8573 -0.5148 0.5148 0.8573 1.1578 64.7549)" class="st0" width="13.2" height="2.3"/>
				</g>
			</g>
			<g id="XMLID_2173_">
				<g id="XMLID_2174_">
					
						<rect id="XMLID_860_" x="418.3" y="219.2" transform="matrix(0.8574 -0.5147 0.5147 0.8574 -52.8352 250.1159)" class="st0" width="13.2" height="2.3"/>
				</g>
			</g>
		</g>
		<g id="XMLID_2170_">
			
				<rect id="XMLID_405_" x="195.9" y="48.1" transform="matrix(0.5 -0.866 0.866 0.5 46.716 200.5986)" class="st0" width="2.4" height="23.6"/>
		</g>
		<g id="XMLID_2169_">
			
				<rect id="XMLID_404_" x="250.5" y="49.6" transform="matrix(0.5 -0.866 0.866 0.5 46.72 263.6362)" class="st0" width="2.4" height="83.5"/>
		</g>
		<g id="XMLID_2167_">
			<rect id="XMLID_403_" x="436.6" y="339.4" class="st0" width="2.4" height="47.4"/>
		</g>
	</g>
</g>
<g id="XMLID_4803_">
	<g id="XMLID_4782_" class="st3">
		<g id="XMLID_4861_" class="st4">
			<path id="XMLID_4865_" class="st0" d="M240.9,139c0-0.1,0-0.2,0.1-0.2l6.5-4c0.3-0.3,0.8-0.2,1.3,0.2l2.4,2
				c0.1,0.1,11.8,9.8,24.7,7.4c0.3,0,0.5-0.1,0.8,0c1.3,0.1,2.7,1,4,2.3l0,0c0.3,0.3,0.6,0.7,0.9,1c12.4,16.8,24.2,20.9,24.7,21.1
				l2.4,0.8c0.8,0.3,1.6,1.4,1.6,2.4l0,2.8c-0.6,36.2-10.7,50.3-19,55.8l0,0l-7.8,4.8l-0.5-1.6c-1.6,0.2-2.6,0.2-2.8,0.1l0,0
				c-0.8-0.1-1.7-0.6-2.5-1.4l0,0c-1.1-1.2-24.2-26.3-29.3-77.3l-3.5-7.6L240.9,139z"/>
			<path id="XMLID_4862_" class="st0" d="M282.4,234.4c-1.4,0.2-2.3,0.1-2.5,0.1c-0.9-0.1-1.9-0.6-2.8-1.6
				c-1-1.1-24.3-26.4-29.4-77.6l-3.5-7.6l-3.8-8.6l0,0c-0.1-0.3,0-0.7,0.3-0.9l6.4-3.9c0.5-0.4,1.3-0.3,2,0.2l2.4,2
				c0.5,0.4,11.8,9.6,24.3,7.3c0.3-0.1,0.6-0.1,1,0c1.4,0.1,3,1,4.3,2.5c0.3,0.3,0.6,0.7,0.9,1.1c12.3,16.7,24,20.7,24.4,20.9
				l2.4,0.8c1,0.3,1.9,1.7,1.9,2.9l0,2.8c-0.6,36.4-10.8,50.7-19.3,56.2l-8.4,5.1L282.4,234.4z M276,145c-13,2.4-24.7-7.1-25.1-7.5
				l-2.4-2c-0.3-0.3-0.5-0.3-0.6-0.2l-6.3,3.8l3.6,8.2l3.5,7.6l0,0.2c5,50.9,28.1,76,29.2,77c0.7,0.7,1.5,1.2,2.1,1.3
				c0.2,0,1.2,0.1,2.7-0.1l0.4-0.1l0.5,1.3l7.3-4.4c8.3-5.4,18.2-19.3,18.8-55.3l0-2.8c0-0.7-0.6-1.7-1.2-1.9l-2.4-0.8
				c-0.5-0.2-12.5-4.3-25-21.3c-0.3-0.4-0.5-0.7-0.8-1c-1.2-1.3-2.5-2-3.6-2.1c-0.1,0-0.2,0-0.2,0C276.3,144.9,276.1,145,276,145z"
				/>
		</g>
		<g id="XMLID_4856_" class="st4">
			<path id="XMLID_4860_" class="st1" d="M247.5,134.8c0.3-0.3,0.8-0.2,1.3,0.2l2.4,2c0.1,0.1,11.8,9.8,24.7,7.4
				c0.3,0,0.5-0.1,0.8,0c1.3,0.1,2.7,1,4,2.3l0,0c0.3,0.3,0.6,0.7,0.9,1c12.4,16.8,24.2,20.9,24.7,21.1l2.4,0.8
				c0.4,0.1,0.8,0.5,1.1,1l-19.5,11l-41-17.3c-0.4-3-0.8-6.1-1.1-9.2l-3.5-7.6l-3.8-8.6c0-0.1,0-0.2,0.1-0.2L247.5,134.8z"/>
			<path id="XMLID_4857_" class="st0" d="M248.8,164.8l0-0.3c-0.5-3-0.8-6.1-1.1-9.2l-3.5-7.6l-3.8-8.6c-0.1-0.3,0-0.7,0.3-0.9
				l6.4-3.9c0.5-0.4,1.3-0.3,2,0.2l2.4,2c0.5,0.4,11.8,9.6,24.3,7.3c0.3-0.1,0.6-0.1,1,0c1.4,0.1,3,1,4.3,2.5
				c0.3,0.3,0.6,0.7,0.9,1.1c12.3,16.7,24,20.7,24.4,20.9l2.4,0.8c0.5,0.2,1,0.6,1.4,1.2l0.3,0.5l-20.2,11.4L248.8,164.8z
				 M308.5,170.2l-2.4-0.8c-0.5-0.2-12.5-4.3-25-21.3c-0.3-0.4-0.5-0.7-0.8-1c-1.2-1.3-2.5-2-3.6-2.1c-0.2,0-0.5,0-0.7,0
				c-13,2.4-24.7-7.1-25.1-7.5l-2.4-2c-0.3-0.3-0.5-0.3-0.6-0.2l-6.3,3.8l3.6,8.2l3.5,7.6l0,0.2c0.3,3,0.7,6,1.1,8.9l40.5,17
				l18.7-10.6C308.8,170.3,308.6,170.2,308.5,170.2z"/>
		</g>
		<g id="XMLID_4847_" class="st4">
			<path id="XMLID_4853_" class="st2" d="M270.8,236.6c-1.2-1.3-29.3-31.8-30.2-94l0-2.9c0-1,0.8-1.3,1.6-0.6l2.4,2
				c0.1,0.1,11.8,9.8,24.7,7.4c0.3,0,0.5-0.1,0.8,0l0,0c1.3,0.1,2.7,1,4,2.3l0,0c0.3,0.3,0.6,0.7,0.9,1
				c12.4,16.8,24.2,20.9,24.7,21.1l2.4,0.8c0.8,0.3,1.6,1.4,1.6,2.4l0,2.8c-1,61.1-29,59.2-30.2,59.1l0,0
				C272.5,238,271.6,237.4,270.8,236.6L270.8,236.6z M295.7,178.5c-5.3-2.9-13.8-8.9-22.7-20.3c-0.6-0.8-1.4-1.3-2-1.2
				c-9,1-17.4-2.7-22.6-5.8c-0.7-0.4-1.2-0.1-1.2,0.7c1.9,42,16.6,66.5,23.1,75.4c1.1,1.5,3,3.4,4.1,3.1
				c6.5-1.5,20.7-10.2,22.5-49.8C296.9,179.9,296.4,178.9,295.7,178.5z"/>
			<path id="XMLID_4848_" class="st0" d="M273.2,238.6c-0.9-0.1-1.9-0.6-2.8-1.6l0,0c-1.2-1.3-29.4-32-30.4-94.4l0-2.9
				c0-0.6,0.3-1.2,0.7-1.4c0.5-0.2,1.1-0.1,1.7,0.4l2.4,2c0.5,0.4,11.8,9.6,24.3,7.3c0.3-0.1,0.6-0.1,1,0c1.4,0.1,3,1,4.3,2.5
				c0.3,0.3,0.6,0.7,0.9,1.1c12.3,16.7,24,20.7,24.4,20.9l2.4,0.8c1,0.3,2,1.7,1.9,2.9l0,2.8c-0.5,32.9-9,47.4-16.1,53.8
				c-6,5.4-11.7,5.9-13.9,5.9C273.6,238.6,273.3,238.6,273.2,238.6z M269.3,149.1c-13,2.4-24.7-7.1-25.1-7.5l-2.4-2
				c-0.3-0.2-0.5-0.3-0.6-0.2c-0.1,0-0.1,0.2-0.1,0.4l0,2.9c1,62,28.9,92.4,30.1,93.7l0,0c0.7,0.7,1.5,1.2,2.1,1.2
				c0.3,0,7,0.6,13.9-5.6c6.9-6.2,15.2-20.4,15.8-53l0-2.8c0-0.7-0.6-1.7-1.2-1.9l-2.4-0.8c-0.5-0.2-12.5-4.3-25-21.3
				c-0.3-0.4-0.5-0.7-0.8-1c-1.2-1.3-2.5-2-3.6-2.1c-0.1,0-0.2,0-0.2,0C269.6,149,269.5,149,269.3,149.1z M269.8,227.7
				c-6.3-8.7-21.3-33.4-23.2-75.7c0-0.6,0.2-1.1,0.6-1.3c0.4-0.2,0.9-0.2,1.4,0.1c5.3,3.2,13.5,6.8,22.3,5.8
				c0.8-0.1,1.8,0.4,2.5,1.4c8.7,11.2,17,17.1,22.5,20.2c0.9,0.5,1.5,1.6,1.5,2.6l0,0c-2,42.3-18.1,49.2-23,50.3c-0.1,0-0.2,0-0.3,0
				C272.7,231.1,270.7,228.9,269.8,227.7z M296.4,180.6c0-0.6-0.4-1.3-0.9-1.6c-5.5-3.1-14-9.1-22.8-20.5c-0.6-0.7-1.2-1-1.6-1
				c-9.1,1-17.5-2.6-23-5.9c-0.2-0.1-0.3-0.1-0.3-0.1c0,0-0.1,0.1-0.1,0.3c1.9,42,16.7,66.5,23,75.1c1.2,1.6,2.9,3,3.5,2.9
				C278.9,228.9,294.4,222.2,296.4,180.6L296.4,180.6z"/>
		</g>
		<path id="XMLID_4846_" class="st5" d="M248.4,151.2c5.2,3.1,13.6,6.9,22.6,5.8c0.6-0.1,1.4,0.4,2,1.2
			c8.9,11.4,17.4,17.4,22.7,20.3c0.7,0.4,1.2,1.4,1.2,2.1c-1.9,39.6-16.1,48.4-22.5,49.8c-1.1,0.2-3-1.7-4.1-3.1
			c-6.5-8.9-21.2-33.4-23.1-75.4C247.2,151.2,247.7,150.8,248.4,151.2z"/>
		<g id="XMLID_4837_" class="st4">
			<path id="XMLID_4841_" class="st0" d="M248.4,151.2c1,0.6,2,1.2,3.2,1.7c2.2,40.9,16.6,64.9,23,73.6c0.7,1,1.9,2.2,2.9,2.8
				c-1.1,0.5-2.2,0.9-3.1,1.1c-1.1,0.2-3-1.7-4.1-3.1c-6.5-8.9-21.2-33.4-23.1-75.4C247.2,151.2,247.7,150.8,248.4,151.2z"/>
			<path id="XMLID_4838_" class="st2" d="M269.8,227.7c-6.3-8.7-21.3-33.4-23.2-75.7c0-0.6,0.2-1.1,0.6-1.3c0.4-0.2,0.9-0.2,1.4,0.1
				v0c1,0.6,2.1,1.2,3.1,1.7l0.3,0.1l0,0.3c2.2,41,16.7,65,22.9,73.4c0.7,0.9,1.8,2.1,2.8,2.7l0.9,0.5l-0.9,0.4
				c-1.1,0.5-2.2,0.9-3.2,1.1c-0.1,0-0.2,0-0.3,0C272.7,231.1,270.7,228.9,269.8,227.7z M274.1,226.9c-6.2-8.5-20.8-32.5-23.1-73.6
				c-1-0.5-2-1-2.9-1.6c-0.2-0.1-0.3-0.1-0.3-0.1c0,0-0.1,0.1-0.1,0.3c1.9,42,16.7,66.6,23,75.1c1.2,1.6,2.9,3.1,3.5,2.9
				c0.7-0.2,1.4-0.4,2.1-0.7C275.5,228.6,274.6,227.7,274.1,226.9z"/>
		</g>
		<g id="XMLID_4835_" class="st4">
			
				<rect id="XMLID_4836_" x="302.5" y="172" transform="matrix(0.8698 -0.4934 0.4934 0.8698 -45.258 173.6504)" class="st0" width="7.8" height="1.1"/>
		</g>
		<g id="XMLID_4833_" class="st4">
			
				<rect id="XMLID_4834_" x="298.3" y="170.1" transform="matrix(0.8698 -0.4934 0.4934 0.8698 -44.8451 171.3587)" class="st0" width="7.8" height="1.1"/>
		</g>
		<g id="XMLID_4831_" class="st4">
			
				<rect id="XMLID_4832_" x="270.4" y="146.1" transform="matrix(0.8698 -0.4934 0.4934 0.8698 -36.6257 154.4355)" class="st0" width="7.8" height="1.1"/>
		</g>
		<g id="XMLID_4829_" class="st4">
			
				<rect id="XMLID_4830_" x="276" y="151.7" transform="matrix(0.8698 -0.4934 0.4934 0.8698 -38.6642 157.9027)" class="st0" width="7.8" height="1.1"/>
		</g>
		<g id="XMLID_4827_" class="st4">
			
				<rect id="XMLID_4828_" x="243.3" y="138.4" transform="matrix(0.8595 -0.5112 0.5112 0.8595 -36.2516 146.0331)" class="st0" width="8.4" height="1.1"/>
		</g>
		<g id="XMLID_4825_" class="st4">
			<polygon id="XMLID_4826_" class="st2" points="303.9,186.2 309.2,183 309.2,181.7 303.9,184.9 			"/>
		</g>
		<g id="XMLID_4811_" class="st4">
			<polygon id="XMLID_4823_" class="st2" points="295,223.1 300.3,219.9 301.3,218 295.9,221.3 			"/>
		</g>
		<g id="XMLID_4820_" class="st4">
			<polygon id="XMLID_4822_" class="st0" points="263.1,149 270.1,145.2 269.6,144.2 261.1,148.9 			"/>
		</g>
		<g id="XMLID_4818_" class="st4">
			
				<rect id="XMLID_4819_" x="270" y="225.6" transform="matrix(0.85 -0.5269 0.5269 0.85 -78.3322 177.2605)" class="st2" width="4.1" height="1.1"/>
		</g>
		<g id="XMLID_4815_" class="st4">
			
				<rect id="XMLID_4816_" x="247.3" y="157.9" transform="matrix(0.8477 -0.5305 0.5305 0.8477 -45.9962 156.6467)" class="st2" width="5" height="1.1"/>
		</g>
		<g id="XMLID_4812_" class="st4">
			
				<rect id="XMLID_4814_" x="247.9" y="163.9" transform="matrix(0.8476 -0.5306 0.5306 0.8476 -49.077 157.9077)" class="st2" width="5" height="1.1"/>
		</g>
		<path id="XMLID_4843_" class="st6" d="M269.8,227.7c-6.3-8.7-21.3-33.4-23.2-75.7c0-0.6,0.2-1.1,0.6-1.3c0.4-0.2,0.9-0.2,1.4,0.1
			v0c5.3,3.2,13.5,6.8,22.3,5.8c0.8-0.1,1.8,0.4,2.5,1.4c8.7,11.2,17,17.1,22.5,20.2c0.9,0.5,1.5,1.6,1.5,2.6
			c-2,42.3-18.1,49.2-23,50.3c-0.1,0-0.2,0-0.3,0C272.7,231.1,270.7,228.9,269.8,227.7z M271.1,157.6c-9.1,1-17.5-2.6-23-5.9
			c-0.2-0.1-0.3-0.1-0.3-0.1c0,0-0.1,0.1-0.1,0.3c1.9,42,16.7,66.6,23,75.1c1.2,1.6,2.9,3.1,3.5,2.9c4.7-1.1,20.1-7.8,22.1-49.3
			c0-0.6-0.4-1.3-0.9-1.6c-5.5-3.1-14-9.1-22.8-20.5C272.1,157.9,271.5,157.6,271.1,157.6C271.1,157.6,271.1,157.6,271.1,157.6z"/>
	</g>
	<g id="XMLID_4802_">
		<g id="XMLID_4783_">
			<g id="XMLID_4842_">
				<path id="XMLID_150_" class="st1" d="M300.4,237.5c0-4.6-2.8-9.9-6.2-11.9l-71.8-41.4c-1.3-0.8-2.5-0.9-3.6-0.6
					c-19,3-26.3,15.9-26.3,15.9l23.6,42.8v3.9c0,15.7,9.6,34,21.3,40.8l4.9,2.8l21.2,38.4c12.4-1.7,24.8-11.7,30.2-16.5
					c1-0.7,1.6-1.5,1.6-1.5l1.1-1.1c2.5-3.2,4-8,4-14.2V237.5z"/>
				<path id="XMLID_151_" class="st0" d="M262,331.1l-21.7-39.3l-4.2-2.4c-12.7-7.3-22.6-26.2-22.6-43V243l-24-43.5l0.7-1.3
					c0.3-0.6,8-14,28-17.1c1.3-0.4,3.2-0.5,5.5,0.8l71.8,41.4c4.2,2.4,7.5,8.7,7.5,14.2v57.4c0,6.5-1.6,12-4.5,15.8l-1.3,1.3
					c0,0,0,0,0,0s-0.8,1-2.1,1.8c-6,5.5-18.5,15.2-31.3,17L262,331.1z M195.6,199.6l23.2,42v4.6c0,14.8,9,32.1,20,38.5l5.5,3.2
					l20.6,37.4c11.3-2.3,22.6-11.5,27-15.6c0.9-0.7,1.4-1.2,1.4-1.2l1.2-1.3c2.1-2.7,3.3-7,3.3-12.4v-57.4c0-3.6-2.3-8.1-4.9-9.6
					l-71.8-41.4c-0.6-0.3-1.1-0.5-1.4-0.4l-0.5,0.1C204.9,188.4,197.8,196.5,195.6,199.6z"/>
			</g>
			<path id="XMLID_4866_" class="st0" d="M293.9,311.8c1-0.7,1.6-1.5,1.6-1.5l1.1-1.1c2.5-3.2,4-8,4-14.2v-57.4
				c0-2.6-2.3-7.5-3.6-9.8l-30,18.7c0,0-10.9,26.1-22,47.8l18.8,34C276.2,326.6,288.6,316.6,293.9,311.8z"/>
			<g id="XMLID_4795_">
				<g id="XMLID_4800_">
					<path id="XMLID_139_" class="st7" d="M212.7,301.7l41.6,24c11.8,6.8,21.3-0.4,21.3-16.1v-57.4c0-4.6-2.8-9.9-6.2-11.9
						l-71.8-41.4c-3.4-2-6.2,0.1-6.2,4.7V261C191.4,276.7,200.9,294.9,212.7,301.7z"/>
					<path id="XMLID_145_" class="st0" d="M262.8,330.9c-3.1,0-6.4-1-9.8-2.9l-41.6-24c-12.7-7.3-22.6-26.2-22.6-43v-57.4
						c0-3.4,1.3-6,3.5-7.3c1.9-1.1,4.4-1,6.7,0.3l71.8,41.4c4.2,2.4,7.5,8.7,7.5,14.2v57.4c0,9.2-3.2,16.3-8.7,19.5
						C267.5,330.3,265.2,330.9,262.8,330.9z M195.2,200.8c-0.1,0-0.2,0-0.3,0.1c-0.4,0.2-0.8,1.2-0.8,2.8V261c0,14.8,9,32.1,20,38.5
						l41.6,24c4.3,2.5,8.3,2.9,11.3,1.1c3.9-2.2,6.1-7.7,6.1-15v-57.4c0-3.6-2.3-8.1-4.9-9.6l-71.8-41.4
						C195.9,200.9,195.5,200.8,195.2,200.8z"/>
				</g>
			</g>
			<g id="XMLID_4784_">
				<g id="XMLID_4786_">
					<g id="XMLID_4967_">
						<polygon id="XMLID_4968_" class="st1" points="241,291.4 241,261.7 235.8,261.7 235.8,282.4 231.7,280 229.1,284.5 						"/>
					</g>
					<path id="XMLID_4964_" class="st1" d="M237.1,270.5c-5.9-3.4-10.5-11.4-10.5-18.3c0-3.8,1.4-6.7,4-8.2c2.6-1.5,5.8-1.3,9.1,0.6
						c5.9,3.4,10.5,11.4,10.5,18.3c0,3.8-1.4,6.7-4,8.2c-1.1,0.6-2.4,1-3.7,1C240.8,272.1,239,271.6,237.1,270.5z M233.2,248.5
						c-0.9,0.5-1.4,1.9-1.4,3.7c0,5,3.6,11.3,8,13.8c1.6,0.9,3,1.2,3.9,0.6c0.9-0.5,1.4-1.9,1.4-3.7c0-5-3.6-11.3-8-13.8
						c-1-0.6-2-0.9-2.8-0.9C233.8,248.2,233.5,248.3,233.2,248.5z"/>
					<path id="XMLID_4791_" class="st2" d="M224.8,252.5c0,5.9,4.1,13.1,9.2,16c5.1,2.9,9.2,0.6,9.2-5.3c0-5.9-4.1-13.1-9.2-16
						C228.9,244.2,224.8,246.6,224.8,252.5z"/>
					<path id="XMLID_4787_" class="st0" d="M232.7,270.8c-5.9-3.4-10.5-11.4-10.5-18.3c0-3.8,1.4-6.7,4-8.2c2.6-1.5,5.8-1.3,9.1,0.6
						c5.9,3.4,10.5,11.4,10.5,18.3c0,3.8-1.4,6.7-4,8.2c-1.1,0.6-2.4,1-3.7,1C236.4,272.4,234.6,271.9,232.7,270.8z M228.8,248.8
						c-0.9,0.5-1.4,1.9-1.4,3.7c0,5,3.6,11.3,8,13.8c1.6,0.9,3,1.2,3.9,0.6c0.9-0.5,1.4-1.9,1.4-3.7c0-5-3.6-11.3-8-13.8
						c-1-0.6-2-0.9-2.8-0.9C229.4,248.5,229.1,248.6,228.8,248.8z"/>
				</g>
				<g id="XMLID_4792_">
					<polygon id="XMLID_4794_" class="st0" points="236.6,291.7 236.6,268.5 231.4,265.3 231.4,282.7 227.3,280.3 224.7,284.8 					
						"/>
				</g>
			</g>
		</g>
		<g id="XMLID_4799_">
			
				<rect id="XMLID_144_" x="276.4" y="259.2" transform="matrix(0.8545 -0.5195 0.5195 0.8545 -93.7178 187.9282)" class="st7" width="24.4" height="4"/>
		</g>
		<g id="XMLID_4824_">
			
				<rect id="XMLID_143_" x="276.4" y="301.5" transform="matrix(0.8545 -0.5195 0.5195 0.8545 -115.6743 194.0787)" class="st7" width="24.4" height="4"/>
		</g>
		<g id="XMLID_4868_">
			<g id="XMLID_4867_">
				<path id="XMLID_4798_" class="st0" d="M270.7,230.3L270.7,230.3c-4,0-7.3-3.3-7.3-7.3v-31.5c0-8.9-6.3-19.7-14-24.2l-13.3-7.7
					c-2.5-1.5-4.4-1.7-5.2-1.2c-0.8,0.4-1.5,2.2-1.5,5.1V195c0,4-3.3,7.3-7.3,7.3l0,0c-4,0-7.3-3.3-7.3-7.3v-31.5
					c0-8,3.2-14.5,8.8-17.7c5.6-3.2,12.8-2.8,19.7,1.2l13.3,7.7c11.7,6.7,21.2,23.3,21.2,36.8V223C278,227,274.7,230.3,270.7,230.3z
					"/>
			</g>
			<g id="XMLID_4796_">
				<path id="XMLID_141_" class="st7" d="M224.5,171.4h-3v-10.2c0-4.1,2.1-7.9,5.7-9.9c3.6-2.1,7.9-2.1,11.5-0.1l13.9,7.9l-1.5,2.6
					l-13.9-7.9c-2.7-1.5-5.8-1.5-8.4,0.1c-2.6,1.5-4.2,4.3-4.2,7.3V171.4z"/>
			</g>
			<g id="XMLID_4869_">
				<path id="XMLID_140_" class="st7" d="M270,194.6c-0.2-11-5.1-19.5-5.1-19.6l2.6-1.5c0.2,0.4,5.3,9.2,5.5,21.1L270,194.6z"/>
			</g>
		</g>
	</g>
</g>
</svg>
